<?xml version="1.0" encoding="utf-8"?>
<!-- Generator: Adobe Illustrator 26.0.2, SVG Export Plug-In . SVG Version: 6.00 Build 0)  -->
<svg version="1.1" id="Layer_1" xmlns="http://www.w3.org/2000/svg" xmlns:xlink="http://www.w3.org/1999/xlink" x="0px" y="0px"
	 viewBox="0 0 128 128" style="enable-background:new 0 0 128 128;" xml:space="preserve">
<style type="text/css">
	.st0{fill:#129487;}
	.st1{fill:#FFFFFF;}
	.st2{fill:#E4E4E4;}
</style>
<circle class="st0" cx="64" cy="64" r="64"/>
<g>
	<polygon class="st1" points="93.3,69.3 93.3,63.8 98.7,63.8 98.7,31.9 93.3,31.9 93.3,26.6 29.3,26.6 29.3,53.1 34.6,53.1 
		34.6,64.2 29.3,64.2 29.3,96.2 34.6,96.2 34.6,101.5 98.7,101.5 98.7,75 87.9,75 87.9,69.3 	"/>
	<g>
		<g>
			<polygon class="st2" points="82.8,31.7 82.8,37.1 82.8,42.5 82.8,47.9 82.8,53.2 82.8,58.7 88.1,58.7 88.1,53.2 88.1,47.9 
				88.1,42.5 88.1,37.1 88.1,31.7 			"/>
			<rect x="77.4" y="58.7" class="st2" width="5.4" height="5.4"/>
			<polygon class="st2" points="66.7,64 66.7,69.4 72,69.4 77.4,69.4 77.4,64 72,64 			"/>
			<rect x="61.3" y="69.4" class="st2" width="5.4" height="5.4"/>
			<polygon class="st2" points="82.8,80.2 82.8,85.6 77.4,85.6 72,85.6 66.7,85.6 61.3,85.6 56,85.6 50.6,85.6 45.2,85.6 39.9,85.6 
				34.5,85.6 34.5,90.9 39.9,90.9 45.2,90.9 50.6,90.9 56,90.9 61.3,90.9 66.7,90.9 72,90.9 77.4,90.9 82.8,90.9 88.1,90.9 
				88.1,85.6 88.1,80.2 88.1,74.8 82.8,74.8 			"/>
		</g>
		<g>
			<polygon class="st0" points="88.1,37.1 88.1,42.5 88.1,47.9 88.1,53.2 88.1,58.7 93.5,58.7 93.5,53.2 93.5,47.9 93.5,42.5 
				93.5,37.1 			"/>
			<rect x="82.8" y="58.7" class="st0" width="5.4" height="5.4"/>
			<rect x="77.4" y="64" class="st0" width="5.4" height="5.4"/>
			<rect x="66.7" y="69.4" class="st0" width="5.4" height="5.4"/>
			<polygon class="st0" points="50.6,53.2 56,53.2 61.3,53.2 66.7,53.2 66.7,47.9 61.3,47.9 56,47.9 50.6,47.9 45.2,47.9 39.9,47.9 
				39.9,53.2 45.2,53.2 			"/>
			<polygon class="st0" points="88.1,85.6 88.1,90.9 82.8,90.9 77.4,90.9 72,90.9 66.7,90.9 61.3,90.9 56,90.9 50.6,90.9 45.2,90.9 
				39.9,90.9 39.9,96.3 45.2,96.3 50.6,96.3 56,96.3 61.3,96.3 66.7,96.3 72,96.3 77.4,96.3 82.8,96.3 88.1,96.3 93.5,96.3 
				93.5,90.9 93.5,85.6 93.5,80.2 88.1,80.2 			"/>
		</g>
		<g>
			<polygon points="93.5,31.7 93.5,26.3 88.1,26.3 82.8,26.3 77.4,26.3 72,26.3 66.7,26.3 61.3,26.3 56,26.3 50.6,26.3 45.2,26.3 
				39.9,26.3 34.5,26.3 29.1,26.3 29.1,31.7 29.1,37.1 29.1,42.5 29.1,47.9 29.1,53.2 34.5,53.2 34.5,58.7 34.5,64 39.9,64 
				39.9,58.7 45.2,58.7 50.6,58.7 50.6,53.2 45.2,53.2 39.9,53.2 39.9,47.9 34.5,47.9 34.5,42.5 34.5,37.1 34.5,31.7 39.9,31.7 
				45.2,31.7 50.6,31.7 56,31.7 61.3,31.7 66.7,31.7 72,31.7 77.4,31.7 82.8,31.7 88.1,31.7 88.1,37.1 93.5,37.1 93.5,42.5 
				93.5,47.9 93.5,53.2 93.5,58.7 88.1,58.7 88.1,64 82.8,64 82.8,69.4 77.4,69.4 72,69.4 72,74.8 77.4,74.8 82.8,74.8 88.1,74.8 
				88.1,69.4 93.5,69.4 93.5,64 98.9,64 98.9,58.7 98.9,53.2 98.9,47.9 98.9,42.5 98.9,37.1 98.9,31.7 			"/>
			<polygon points="93.5,80.2 93.5,85.6 93.5,90.9 93.5,96.3 88.1,96.3 82.8,96.3 77.4,96.3 72,96.3 66.7,96.3 61.3,96.3 56,96.3 
				50.6,96.3 45.2,96.3 39.9,96.3 39.9,90.9 34.5,90.9 34.5,85.6 34.5,80.2 34.5,74.8 34.5,69.4 34.5,64 29.1,64 29.1,69.4 
				29.1,74.8 29.1,80.2 29.1,85.6 29.1,90.9 29.1,96.3 34.5,96.3 34.5,101.7 39.9,101.7 45.2,101.7 50.6,101.7 56,101.7 61.3,101.7 
				66.7,101.7 72,101.7 77.4,101.7 82.8,101.7 88.1,101.7 93.5,101.7 98.9,101.7 98.9,96.3 98.9,90.9 98.9,85.6 98.9,80.2 
				98.9,74.8 93.5,74.8 88.1,74.8 88.1,80.2 			"/>
		</g>
	</g>
</g>
</svg>
