<?xml version="1.0" encoding="utf-8"?>
<!-- Generator: Adobe Illustrator 26.0.1, SVG Export Plug-In . SVG Version: 6.00 Build 0)  -->
<svg version="1.1" id="Layer_1" xmlns="http://www.w3.org/2000/svg" xmlns:xlink="http://www.w3.org/1999/xlink" x="0px" y="0px"
	 viewBox="0 0 432 85" style="enable-background:new 0 0 432 85;" xml:space="preserve">
<style type="text/css">
	.st0{fill:none;}
	.st1{fill:#FFFFFF;}
</style>
<g>
	<path class="st0" d="M121.7,33.5c-0.7,0.1-1.3,0.2-2,0.2c-4.2,0.8-6.2,3.7-6.2,8.8c0.1,4.9,0.6,7.7,1.4,8.4c0,1.7,2.1,2.7,6.2,3.1
		h1.2c0.9,0,2.1-0.2,3.5-0.6c2.6-1.7,3.9-5,3.9-9.8v-1.5c0-1.3-0.3-2.8-1-4.5C127.5,34.9,125.2,33.5,121.7,33.5z"/>
	<path class="st0" d="M61.5,18.7c-2.4-1.2-4.9-1.8-7.6-1.8c-6.8,0-11.8,3.3-15.2,10c-1.2,2.4-1.8,5.2-1.8,8.5v0.2
		c0,6.4,2.7,11.5,8.2,15.4c2.7,1.7,5.5,2.5,8.4,2.5h1.6c7.1,0,12.3-4,15.6-12.1c0.5-2.1,0.8-4,0.8-5.7v-1
		C71.5,27.8,68.2,22.5,61.5,18.7z"/>
	<path class="st1" d="M54.2,0C44.1,0,35.5,3.5,28.3,10.4c-2.8,2.8-5.1,5.8-6.8,9.1c6.4,2.6,11,8.9,11,16.2c0,7.3-4.5,13.6-10.9,16.2
		c1.7,3.2,3.9,6.1,6.7,8.9c7.1,7,15.8,10.5,25.9,10.5c10.1,0,18.8-3.5,25.9-10.4c7.1-7,10.7-15.4,10.7-25.2
		c0-9.8-3.6-18.2-10.7-25.2C73,3.5,64.3,0,54.2,0z M71.5,35.7c0,1.7-0.3,3.6-0.8,5.7c-3.3,8.1-8.5,12.1-15.6,12.1h-1.6
		c-2.9,0-5.7-0.8-8.4-2.5c-5.5-3.9-8.2-9-8.2-15.4v-0.2c0-3.3,0.6-6.1,1.8-8.5c3.4-6.7,8.4-10,15.2-10c2.7,0,5.2,0.6,7.6,1.8
		c6.7,3.8,10,9.1,10,16V35.7z"/>
	<path class="st1" d="M136.8,21c-3.2-1.2-6.3-1.8-9.4-1.8c-5,0-9.4,1.6-13.1,4.7h-0.2v-3.4H94.5v41.3V85h19.6V63.4
		c3.7,3.1,7.7,4.7,11.8,4.7h2.5c7.8,0,14-3.6,18.8-10.9c2.2-3.9,3.3-8.2,3.3-13.1v-0.6C150.5,33.1,145.9,25.6,136.8,21z M129.7,43.6
		c0,4.8-1.3,8.1-3.9,9.8c-1.4,0.4-2.6,0.6-3.5,0.6h-1.2c-4.1-0.4-6.2-1.4-6.2-3.1c-0.8-0.7-1.3-3.5-1.4-8.4c0-5.1,2-8,6.2-8.8
		c0.7,0,1.3-0.1,2-0.2c3.5,0,5.8,1.4,7,4.1c0.7,1.7,1,3.2,1,4.5V43.6z"/>
	<path class="st1" d="M180.2,18.9c-7.7,0.1-14.1,2.7-19.2,7.8c-5.2,5.1-7.8,11.4-7.8,18.9c0,6.5,2.5,12.5,7.4,18
		c5,5.5,12.1,8.2,21.3,8.2c9.9,0,18.1-5.7,24.6-17.1v-0.2h-17.6c-2,2.6-4.2,3.9-6.5,3.9h-0.7c-1.8,0-3.6-0.5-5.5-1.5
		c-2.1-1-3.6-2.9-4.7-5.6v-0.2h35.9v-0.9c0-4-0.3-7.3-1-10C202.6,26,193.9,18.9,180.2,18.9z M189.2,39.6h-18c1.1-4,4.3-6,9.6-5.9
		c1.9,0,3.7,0.5,5.5,1.4C188.2,36.7,189.2,38.1,189.2,39.6L189.2,39.6z"/>
	<path class="st1" d="M245.1,18.8h-1.4c-5.6,0-10.6,2.7-15,8v-6.3h-18.6v49.9h18.6V43c0-0.7,0.1-1.3,0.2-1.8
		c1.1-4.1,3.3-6.1,6.8-6.1h1.2c0.5,0,1.1,0.1,1.8,0.2c3.4,1.2,5.1,4.1,5.1,9v26h18.3V37.5c0-1.9-0.3-4.2-0.8-6.6
		C258.5,22.8,253.1,18.8,245.1,18.8z"/>
	<polygon class="st1" points="315.8,18.2 315.8,2 267,2 267,18.1 293.9,18.1 267,53.9 267,70.3 315.8,70.3 315.9,70.3 315.9,53.9 
		289,53.9 	"/>
	<path class="st1" d="M344.9,17.9c-5.3,0-10.3,1.2-14.8,3.5c-9.7,5.8-14.5,13.7-14.5,23.6v0.7c0,5.1,1.4,9.8,4.1,14.1
		c6,8.6,14.2,12.9,24.6,12.9c7.4,0,13.9-2.2,19.5-6.8c6.4-5.8,9.6-12.2,9.6-19.3v-2.7c0-4-1.2-8.2-3.7-12.7
		C363.4,22.3,355.1,17.9,344.9,17.9z M351.5,53.1c-0.9,2.7-3.1,4.1-6.6,4.1l-2.7-0.2c-3.8-0.9-5.7-4.2-5.7-10.2v-2.5
		c0-2.4,0.4-4.6,1.2-6.4c1.1-2.9,3.2-4.3,6.4-4.3h0.6c5.3,0,8,3.9,8,11.7C352.7,48.1,352.3,50.8,351.5,53.1z"/>
	<path class="st1" d="M428.3,31.2c-6.3-8.9-14.6-13.3-24.8-13.3c-5.3,0-10.3,1.2-14.8,3.5c-9.7,5.8-14.5,13.7-14.5,23.6v0.7
		c0,5.1,1.4,9.8,4.1,14.1c6,8.6,14.2,12.9,24.6,12.9c7.4,0,13.9-2.2,19.5-6.8c6.4-5.8,9.6-12.2,9.6-19.3v-2.7
		C432,39.9,430.8,35.7,428.3,31.2z M410.1,53.1c-0.9,2.7-3.1,4.1-6.6,4.1l-2.7-0.2c-3.8-0.9-5.7-4.2-5.7-10.2v-2.5
		c0-2.4,0.4-4.6,1.2-6.4c1.1-2.9,3.2-4.3,6.4-4.3h0.6c5.3,0,8,3.9,8,11.7C411.3,48.1,410.9,50.8,410.1,53.1z"/>
	<path class="st1" d="M2.5,35.7c0,6.9,5.6,12.5,12.5,12.5c1.6,0,3.1-0.3,4.5-0.9c-1.3-3.7-1.9-7.6-1.9-11.7c0-4.1,0.6-7.9,1.9-11.6
		c-1.4-0.5-2.9-0.8-4.5-0.8C8.1,23.2,2.5,28.8,2.5,35.7z"/>
	<path class="st1" d="M19.5,47.3c4.6-1.8,8-6.3,8-11.6c0-5.3-3.3-9.8-8-11.7c-1.3,3.6-1.9,7.5-1.9,11.6
		C17.6,39.8,18.3,43.7,19.5,47.3z"/>
	<path class="st1" d="M15,48.2c-6.9,0-12.5-5.6-12.5-12.5S8.1,23.2,15,23.2c1.6,0,3.1,0.3,4.5,0.8c0.3-0.8,0.6-1.6,0.9-2.3
		c-1.7-0.6-3.5-1-5.4-1c-8.3,0-15,6.7-15,15c0,8.3,6.7,15,15,15c1.9,0,3.8-0.4,5.5-1c-0.3-0.8-0.6-1.5-0.9-2.3
		C18.1,47.9,16.6,48.2,15,48.2z"/>
	<path class="st1" d="M30,35.7c0-6.4-4-11.8-9.6-14c-0.3,0.8-0.6,1.5-0.9,2.3c4.7,1.8,8,6.3,8,11.7c0,5.3-3.3,9.8-8,11.6
		c0.3,0.8,0.6,1.6,0.9,2.3C26,47.5,30,42.1,30,35.7z"/>
</g>
</svg>
