<?xml version="1.0" encoding="utf-8"?>
<!-- Generator: Adobe Illustrator 26.0.1, SVG Export Plug-In . SVG Version: 6.00 Build 0)  -->
<svg version="1.1" id="Layer_1" xmlns="http://www.w3.org/2000/svg" xmlns:xlink="http://www.w3.org/1999/xlink" x="0px" y="0px"
	 viewBox="0 0 100 80" style="enable-background:new 0 0 100 80;" xml:space="preserve">
<style type="text/css">
	.st0{fill:#F9BB32;}
	.st1{fill:#00A59A;}
</style>
<g>
	<path class="st0" d="M59.7,80C48.6,80,39,76.1,31.2,68.2S19.4,50.9,19.4,39.9s4-20.4,11.8-28.3C39.1,3.9,48.6,0,59.7,0
		s20.7,3.9,28.5,11.8S100,29.1,100,40.1s-4,20.4-11.8,28.3C80.4,76.1,70.8,80,59.7,80z M40.6,39.7v0.2c0,7.2,3,12.9,9,17.3
		c3,1.9,6.1,2.8,9.3,2.8h1.8c7.8,0,13.5-4.5,17.2-13.6c0.6-2.4,0.9-4.5,0.9-6.4v-1.1c0-7.7-3.6-13.7-11-18c-2.6-1.3-5.4-2-8.4-2
		c-7.5,0-13,3.7-16.7,11.2C41.3,32.9,40.6,36,40.6,39.7z"/>
	<ellipse class="st1" cx="16.5" cy="40.1" rx="16.5" ry="16.8"/>
</g>
</svg>
