<?xml version="1.0" encoding="utf-8"?>
<!-- Generator: Adobe Illustrator 19.0.0, SVG Export Plug-In . SVG Version: 6.00 Build 0)  -->
<svg version="1.1" id="Layer_1" xmlns="http://www.w3.org/2000/svg" xmlns:xlink="http://www.w3.org/1999/xlink" x="0px" y="0px"
	 width="1503px" height="1504px" viewBox="272 -472 1503 1504" style="enable-background:new 272 -472 1503 1504;"
	 xml:space="preserve">
<style type="text/css">
	.st0{fill:#F7BC4B;}
</style>
<path class="st0" d="M650,944H398.5c-52.9,0-79,0-94.9-10.2c-17.2-11.2-27.7-29.6-29-50c-1-18.8,12.1-41.7,38.2-87.6L934-298.8
	c26.4-46.5,39.8-69.7,56.7-78.3c18.2-9.2,39.8-9.2,58,0c16.9,8.6,30.3,31.8,56.7,78.3L1233-75.8l0.7,1.1
	c28.5,49.9,43,75.2,49.3,101.7c7,29,7,59.6,0,88.5c-6.4,26.7-20.7,52.2-49.7,102.9L907,795.2l-0.8,1.5c-28.7,50.3-43.3,75.8-63.5,95
	c-22,21-48.4,36.3-77.4,44.9C738.9,944,709.3,944,650,944z"/>
<path class="st0" d="M1287.1,944h360.5c53.2,0,79.9,0,95.9-10.5c17.2-11.2,28-29.9,29-50.3c0.9-18.2-11.9-40.2-36.9-83.4
	c-0.9-1.5-1.7-3-2.6-4.5l-180.6-308.9l-2.1-3.5c-25.4-42.9-38.2-64.6-54.6-72.9c-18.1-9.2-39.5-9.2-57.6,0
	c-16.6,8.6-29.9,31.2-56.4,76.7l-179.9,308.9l-0.6,1.1c-26.3,45.5-39.5,68.2-38.6,86.8c1.3,20.4,11.8,39.2,29,50.3
	C1207.2,944,1233.9,944,1287.1,944z"/>
</svg>
