<?xml version="1.0" encoding="utf-8"?>
<!-- Generator: Adobe Illustrator 26.0.1, SVG Export Plug-In . SVG Version: 6.00 Build 0)  -->
<svg version="1.1" id="Layer_1" xmlns="http://www.w3.org/2000/svg" xmlns:xlink="http://www.w3.org/1999/xlink" x="0px" y="0px"
	 viewBox="0 0 100 100" style="enable-background:new 0 0 100 100;" xml:space="preserve">
<style type="text/css">
	.st0{fill:#F9BB32;}
	.st1{fill:#FFFFFF;}
</style>
<g>
	<path class="st0" d="M60,97.2c-2.1,0-4-0.6-5.7-1.8l-4.2-3l-4.2,3c-1.7,1.2-3.7,1.8-5.7,1.8c-3.9,0-7.4-2.3-9.1-5.8l-2.2-4.7
		l-5.1,0.5c-0.3,0-0.6,0-0.9,0c-2.8,0-5.5-1.2-7.4-3.3c-1.9-2.1-2.8-4.8-2.6-7.6l0.5-5.1L8.6,69c-2.7-1.3-4.7-3.6-5.4-6.5
		c-0.8-2.9-0.2-5.9,1.5-8.3l3-4.2l-3-4.2c-1.7-2.4-2.2-5.5-1.5-8.3s2.8-5.2,5.4-6.5l4.7-2.2l-0.5-5.1c-0.2-2.8,0.7-5.6,2.6-7.6
		c1.9-2.1,4.6-3.3,7.4-3.3c0.3,0,0.6,0,0.9,0l5.1,0.5L31,8.6C32.6,5,36.2,2.8,40,2.8c2.1,0,4,0.6,5.7,1.8l4.2,3l4.2-3
		c1.7-1.2,3.7-1.8,5.7-1.8c3.9,0,7.4,2.3,9.1,5.8l2.2,4.7l5.1-0.5c0.3,0,0.6,0,0.9,0c2.8,0,5.5,1.2,7.4,3.3c1.9,2.1,2.8,4.8,2.6,7.6
		l-0.5,5.1l4.7,2.2c2.7,1.3,4.7,3.6,5.4,6.5s0.2,5.9-1.5,8.3l-3,4.2l3,4.2c1.7,2.4,2.2,5.5,1.5,8.3c-0.8,2.9-2.8,5.2-5.4,6.5
		l-4.7,2.2l0.5,5.1c0.2,2.8-0.7,5.6-2.6,7.6c-1.9,2.1-4.6,3.3-7.4,3.3c-0.3,0-0.6,0-0.9,0l-5.1-0.5L69,91.4
		C67.4,95,63.8,97.2,60,97.2z"/>
	<path class="st1" d="M60,4.8c3,0,5.9,1.7,7.3,4.6l2.8,6l6.5-0.6c0.2,0,0.5,0,0.7,0c4.6,0,8.4,4,8,8.7L84.6,30l6,2.8
		c4.5,2.1,6,7.8,3.2,11.8L90,50l3.8,5.4c2.9,4.1,1.3,9.7-3.2,11.8l-6,2.8l0.6,6.5c0.4,4.7-3.3,8.7-8,8.7c-0.2,0-0.5,0-0.7,0L70,84.6
		l-2.8,6c-1.4,3-4.3,4.6-7.3,4.6c-1.6,0-3.2-0.5-4.6-1.5L50,90l-5.4,3.8c-1.4,1-3,1.5-4.6,1.5c-3,0-5.9-1.7-7.3-4.6l-2.8-6l-6.5,0.6
		c-0.2,0-0.5,0-0.7,0c-4.6,0-8.4-4-8-8.7l0.6-6.5l-6-2.8c-4.5-2.1-6-7.8-3.2-11.8L10,50l-3.8-5.4c-2.9-4.1-1.3-9.7,3.2-11.8l6-2.8
		l-0.6-6.5c-0.4-4.7,3.3-8.7,8-8.7c0.2,0,0.5,0,0.7,0l6.5,0.6l2.8-6c1.4-3,4.3-4.6,7.3-4.6c1.6,0,3.2,0.5,4.6,1.5L50,10l5.4-3.8
		C56.8,5.2,58.4,4.8,60,4.8 M60,0.8c-2.5,0-4.8,0.8-6.9,2.2L50,5.1L46.9,3c-2-1.4-4.4-2.2-6.9-2.2c-4.7,0-8.9,2.7-10.9,6.9l-1.6,3.4
		l-3.8-0.3c-0.4,0-0.7,0-1.1,0c-3.3,0-6.6,1.4-8.8,3.9c-2.3,2.5-3.4,5.8-3.1,9.2l0.3,3.8l-3.4,1.6c-3.2,1.5-5.6,4.3-6.5,7.8
		C0.3,40.4,0.9,44,3,46.9L5.1,50L3,53.1c-2,2.9-2.7,6.6-1.8,10c0.9,3.4,3.3,6.3,6.5,7.8l3.4,1.6l-0.3,3.8c-0.3,3.3,0.8,6.7,3.1,9.2
		c2.3,2.5,5.5,3.9,8.8,3.9c0.4,0,0.7,0,1.1,0l3.8-0.3l1.6,3.4c2,4.2,6.2,6.9,10.9,6.9c2.5,0,4.8-0.8,6.9-2.2l3.1-2.2l3.1,2.2
		c2,1.4,4.4,2.2,6.9,2.2c4.7,0,8.9-2.7,10.9-6.9l1.6-3.4l3.8,0.3c0.4,0,0.7,0,1.1,0c3.3,0,6.6-1.4,8.8-3.9c2.3-2.5,3.4-5.8,3.1-9.2
		l-0.3-3.8l3.4-1.6c3.2-1.5,5.6-4.3,6.5-7.8c0.9-3.4,0.3-7.1-1.8-10L94.9,50l2.2-3.1c2-2.9,2.7-6.6,1.8-10c-0.9-3.4-3.3-6.3-6.5-7.8
		l-3.4-1.6l0.3-3.8c0.3-3.3-0.8-6.7-3.1-9.2c-2.3-2.5-5.5-3.9-8.8-3.9c-0.4,0-0.7,0-1.1,0l-3.8,0.3l-1.6-3.4
		C68.9,3.5,64.6,0.8,60,0.8L60,0.8z"/>
</g>
<g>
	<path class="st1" d="M40.6,75L24.1,57.1c-2.2-2.4-2.1-6.2,0.3-8.5c2.4-2.2,6.2-2.1,8.5,0.3l7.5,8.1L67,27c2.2-2.5,6-2.7,8.5-0.5
		c2.5,2.2,2.7,6,0.5,8.5L40.6,75z"/>
</g>
</svg>
