<?xml version="1.0" encoding="UTF-8"?>
<svg width="308px" height="47px" viewBox="0 0 308 47" version="1.1" xmlns="http://www.w3.org/2000/svg" xmlns:xlink="http://www.w3.org/1999/xlink">
    <title>logo</title>
    <g id="页面-1" stroke="none" stroke-width="1" fill="none" fill-rule="evenodd">
        <g id="数字提示" transform="translate(-260.000000, -11.000000)" fill="#FFFFFF">
            <g id="logo" transform="translate(260.000000, 11.000000)">
                <polygon id="Fill-1" points="14.3723475 2.64381388 26.4438764 43.7340739 35.9450546 43.7340739 23.8769032 2.64381388"></polygon>
                <path d="M32.4654549,18.0143246 C14.5337966,18.0143246 0,29.5290027 0,43.7357778 L16.6481718,43.7357778 C16.6481718,31.8087658 26.8957987,21.7832603 40.7912296,18.8696617 C38.1330614,18.3142037 35.3431669,18.0143246 32.4654549,18.0143246" id="Fill-2" opacity="0.300000012"></path>
                <path d="M49.1143022,18.0143246 C46.2365903,18.0143246 43.4466958,18.3142037 40.7919051,18.8696617 C54.687336,21.7832603 64.9315854,31.8087658 64.9315854,43.7357778 L81.5797572,43.7357778 C81.5797572,29.5290027 67.0459606,18.0143246 49.1143022,18.0143246" id="Fill-4"></path>
                <polygon id="Fill-6" opacity="0.300000012" points="45.4053638 43.735437 54.9099196 43.735437 66.9780709 2.64176925 57.4735151 2.64176925"></polygon>
                <polygon id="Fill-8" points="54.8653353 43.735437 45.3810451 43.735437 35.9440413 11.6108822 45.4317091 11.6108822"></polygon>
                <polygon id="Fill-10" opacity="0.300000012" points="26.4854208 43.735437 35.9730886 43.735437 45.4067149 11.6108822 35.9190471 11.6108822"></polygon>
                <path d="M106.318303,35 L111.907303,15.5195 L117.496303,35 L124.057303,35 L132.764803,7.9865 L126.851803,7.9865 L120.776803,28.3175 L115.106803,7.9865 L108.707803,7.9865 L103.037803,28.3175 L96.9628031,7.9865 L91.0093031,7.9865 L99.7573031,35 L106.318303,35 Z M154.958803,35 L154.958803,23.903 C155.120803,19.61 153.703303,16.8965 150.706303,15.7625 C150.058303,15.5735 149.423803,15.44525 148.802803,15.37775 C148.181803,15.31025 147.047803,15.2765 145.400803,15.2765 L145.400803,15.2765 L136.247803,15.2765 L136.247803,19.4885 L145.400803,19.4885 C147.047803,19.4885 148.148053,19.7315 148.701553,20.2175 C149.255053,20.7035 149.531803,21.635 149.531803,23.012 L149.531803,23.012 L142.889803,23.012 C140.756803,23.012 139.231303,23.174 138.313303,23.498 C137.260303,23.876 136.416553,24.58475 135.782053,25.62425 C135.147553,26.66375 134.830303,27.845 134.830303,29.168 C134.830303,31.355 135.626803,32.9885 137.219803,34.0685 C137.813803,34.4465 138.502303,34.69625 139.285303,34.81775 C140.068303,34.93925 141.485803,35 143.537803,35 L143.537803,35 L154.958803,35 Z M149.531803,30.788 L143.294803,30.788 C142.214803,30.788 141.452053,30.653 141.006553,30.383 C140.561053,30.113 140.338303,29.6675 140.338303,29.0465 C140.338303,28.4795 140.520553,28.034 140.885053,27.71 C141.249553,27.386 141.742303,27.224 142.363303,27.224 L142.363303,27.224 L149.531803,27.224 L149.531803,30.788 Z M165.448303,35 L165.448303,19.4885 L170.146303,19.4885 C171.145303,19.4885 171.860803,19.7045 172.292803,20.1365 C172.724803,20.5685 172.940803,21.2705 172.940803,22.2425 L172.940803,22.2425 L172.940803,35 L178.367803,35 L178.367803,22.85 C178.367803,20.123 177.679303,18.125 176.302303,16.856 C175.627303,16.262 174.878053,15.85025 174.054553,15.62075 C173.231053,15.39125 172.036303,15.2765 170.470303,15.2765 L170.470303,15.2765 L160.021303,15.2765 L160.021303,35 L165.448303,35 Z M198.496303,35 C200.737303,35 202.424803,34.80425 203.558803,34.41275 C204.692803,34.02125 205.624303,33.3125 206.353303,32.2865 C207.190303,31.0985 207.608803,29.627 207.608803,27.872 C207.608803,24.821 206.299303,22.7015 203.680303,21.5135 C204.814303,21.0545 205.752553,20.2175 206.495053,19.0025 C207.237553,17.7875 207.608803,16.478 207.608803,15.074 C207.608803,13.994 207.379303,12.9545 206.920303,11.9555 C206.272303,10.4975 205.313803,9.458 204.044803,8.837 C202.964803,8.27 201.223303,7.9865 198.820303,7.9865 L198.820303,7.9865 L183.551803,7.9865 L183.551803,35 L198.496303,35 Z M197.119303,19.0835 L189.302803,19.0835 L189.302803,12.806 L197.240803,12.806 C198.563803,12.806 199.508803,12.995 200.075803,13.373 C200.858803,13.886 201.250303,14.6825 201.250303,15.7625 C201.250303,16.8965 200.831803,17.7875 199.994803,18.4355 C199.643803,18.7055 199.286053,18.881 198.921553,18.962 C198.557053,19.043 197.956303,19.0835 197.119303,19.0835 L197.119303,19.0835 Z M197.119303,30.1805 L189.302803,30.1805 L189.302803,23.903 L197.240803,23.903 C198.563803,23.903 199.508803,24.092 200.075803,24.47 C200.858803,24.983 201.250303,25.7795 201.250303,26.8595 C201.250303,27.9935 200.831803,28.8845 199.994803,29.5325 C199.670803,29.8025 199.319803,29.978 198.941803,30.059 C198.563803,30.14 197.956303,30.1805 197.119303,30.1805 L197.119303,30.1805 Z M217.126303,35 L217.126303,19.4885 L218.665303,19.4885 C220.042303,19.4885 220.973803,19.745 221.459803,20.258 C221.945803,20.771 222.188803,21.7295 222.188803,23.1335 L222.188803,23.1335 L222.188803,24.1865 L227.413303,24.1865 L227.413303,22.283 C227.413303,20.771 227.291803,19.61 227.048803,18.8 C226.805803,17.99 226.387303,17.315 225.793303,16.775 C225.199303,16.235 224.450053,15.85025 223.545553,15.62075 C222.641053,15.39125 221.365303,15.2765 219.718303,15.2765 L219.718303,15.2765 L211.699303,15.2765 L211.699303,35 L217.126303,35 Z M236.080303,13.2515 L236.080303,7.9865 L230.653303,7.9865 L230.653303,13.2515 L236.080303,13.2515 Z M236.080303,35 L236.080303,15.2765 L230.653303,15.2765 L230.653303,35 L236.080303,35 Z M260.056303,35 L260.056303,7.9865 L254.669803,7.9865 L254.669803,15.2765 L249.566803,15.2765 C247.028803,15.2765 245.017303,15.8975 243.532303,17.1395 C241.264303,19.0025 240.130303,21.6215 240.130303,24.9965 C240.130303,27.0755 240.521803,28.8305 241.304803,30.2615 C242.438803,32.3945 244.153303,33.8255 246.448303,34.5545 C247.420303,34.8515 248.851303,35 250.741303,35 L250.741303,35 L260.056303,35 Z M254.669803,30.788 L250.741303,30.788 C249.526303,30.788 248.473303,30.464 247.582303,29.816 C246.286303,28.844 245.638303,27.2375 245.638303,24.9965 C245.638303,23.4575 246.029803,22.202 246.812803,21.23 C247.703803,20.069 249.013303,19.4885 250.741303,19.4885 L250.741303,19.4885 L254.669803,19.4885 L254.669803,30.788 Z M276.701803,42.0065 C278.375803,42.0065 279.651553,41.86475 280.529053,41.58125 C281.406553,41.29775 282.155803,40.778 282.776803,40.022 C283.262803,39.428 283.634053,38.699 283.890553,37.835 C284.147053,36.971 284.275303,35.9855 284.275303,34.8785 L284.275303,34.8785 L284.275303,15.2765 L274.150303,15.2765 C272.665303,15.2765 271.443553,15.40475 270.485053,15.66125 C269.526553,15.91775 268.615303,16.3565 267.751303,16.9775 C265.348303,18.6785 264.146803,21.392 264.146803,25.118 C264.146803,28.385 265.132303,30.95 267.103303,32.813 C267.940303,33.596 268.878553,34.15625 269.918053,34.49375 C270.957553,34.83125 272.273803,35 273.866803,35 L273.866803,35 L278.848303,35 C278.848303,36.134 278.666053,36.88325 278.301553,37.24775 C277.937053,37.61225 277.160803,37.7945 275.972803,37.7945 L275.972803,37.7945 L265.888303,37.7945 L265.888303,42.0065 L276.701803,42.0065 Z M278.848303,30.788 L274.636303,30.788 C273.016303,30.788 271.781053,30.30875 270.930553,29.35025 C270.080053,28.39175 269.654803,26.9945 269.654803,25.1585 C269.654803,21.3785 271.220803,19.4885 274.352803,19.4885 L274.352803,19.4885 L278.848303,19.4885 L278.848303,30.788 Z M305.699803,35 L305.699803,30.788 L299.098303,30.788 C297.451303,30.788 296.263303,30.518 295.534303,29.978 C294.805303,29.438 294.386803,28.52 294.278803,27.224 L294.278803,27.224 L305.699803,27.224 L305.699803,23.012 L294.278803,23.012 C294.413803,21.662 294.778303,20.73725 295.372303,20.23775 C295.966303,19.73825 297.005803,19.4885 298.490803,19.4885 L298.490803,19.4885 L305.699803,19.4885 L305.699803,15.2765 L298.085803,15.2765 C296.114803,15.2765 294.521803,15.533 293.306803,16.046 C292.091803,16.559 291.052303,17.423 290.188303,18.638 C288.919303,20.42 288.284803,22.499 288.284803,24.875 C288.284803,28.547 289.486303,31.3145 291.889303,33.1775 C292.753303,33.8255 293.678053,34.29125 294.663553,34.57475 C295.649053,34.85825 296.924803,35 298.490803,35 L298.490803,35 L305.699803,35 Z" id="WanBridge" fill-rule="nonzero"></path>
            </g>
        </g>
    </g>
</svg>